{
	"asset":{
		"generator":"Khronos glTF Blender I/O v4.4.56",
		"version":"2.0"
	},
	"extensionsUsed":[
		"KHR_materials_specular",
		"KHR_materials_anisotropy",
		"KHR_materials_ior"
	],
	"scene":0,
	"scenes":[
		{
			"name":"Scene",
			"nodes":[
				14
			]
		}
	],
	"nodes":[
		{
			"mesh":0,
			"name":"Object_10"
		},
		{
			"children":[
				0
			],
			"name":"Sphere_6",
			"scale":[
				0.649558961391449,
				0.6495590209960938,
				0.6495590209960938
			]
		},
		{
			"mesh":1,
			"name":"Object_6"
		},
		{
			"children":[
				2
			],
			"name":"Torus.000_4",
			"rotation":[
				0,
				0.3420201539993286,
				0,
				0.9396927356719971
			],
			"scale":[
				1.0288292169570923,
				0.666666567325592,
				1.0288292169570923
			]
		},
		{
			"mesh":2,
			"name":"Object_4"
		},
		{
			"children":[
				4
			],
			"name":"Torus.001_3",
			"scale":[
				0.5889937877655029,
				0.6666630506515503,
				0.5889937877655029
			]
		},
		{
			"mesh":3,
			"name":"Object_8"
		},
		{
			"children":[
				6
			],
			"name":"Torus.002_5",
			"rotation":[
				0,
				0.6427876353263855,
				0,
				0.7660444378852844
			],
			"scale":[
				1.4504214525222778,
				0.6666667461395264,
				1.4504214525222778
			]
		},
		{
			"mesh":4,
			"name":"Object_12"
		},
		{
			"children":[
				8
			],
			"name":"Torus.003_7",
			"rotation":[
				0,
				0.8660253882408142,
				0,
				0.4999999701976776
			],
			"scale":[
				1.891978144645691,
				0.666666567325592,
				1.8919782638549805
			]
		},
		{
			"mesh":5,
			"name":"Object_14"
		},
		{
			"children":[
				10
			],
			"name":"Torus.004_8",
			"rotation":[
				0,
				0.9848077893257141,
				0,
				0.17364810407161713
			],
			"scale":[
				2.4103381633758545,
				0.666666567325592,
				2.4103379249572754
			]
		},
		{
			"children":[
				1,
				3,
				5,
				7,
				9,
				11
			],
			"name":"GLTF_SceneRootNode",
			"rotation":[
				0.70710688829422,
				0,
				0,
				0.7071066498756409
			]
		},
		{
			"children":[
				12
			],
			"name":"root"
		},
		{
			"children":[
				13
			],
			"name":"Sketchfab_model",
			"rotation":[
				-0.7071067690849304,
				0,
				0,
				0.7071068286895752
			],
			"scale":[
				0.11366342008113861,
				0.11366342008113861,
				0.11366342008113861
			]
		}
	],
	"animations":[
		{
			"channels":[
				{
					"sampler":0,
					"target":{
						"node":3,
						"path":"rotation"
					}
				},
				{
					"sampler":1,
					"target":{
						"node":3,
						"path":"scale"
					}
				},
				{
					"sampler":2,
					"target":{
						"node":5,
						"path":"rotation"
					}
				},
				{
					"sampler":3,
					"target":{
						"node":5,
						"path":"scale"
					}
				},
				{
					"sampler":4,
					"target":{
						"node":7,
						"path":"rotation"
					}
				},
				{
					"sampler":5,
					"target":{
						"node":7,
						"path":"scale"
					}
				},
				{
					"sampler":6,
					"target":{
						"node":9,
						"path":"rotation"
					}
				},
				{
					"sampler":7,
					"target":{
						"node":9,
						"path":"scale"
					}
				},
				{
					"sampler":8,
					"target":{
						"node":11,
						"path":"rotation"
					}
				},
				{
					"sampler":9,
					"target":{
						"node":11,
						"path":"scale"
					}
				}
			],
			"name":"Animation",
			"samplers":[
				{
					"input":24,
					"interpolation":"LINEAR",
					"output":25
				},
				{
					"input":26,
					"interpolation":"STEP",
					"output":27
				},
				{
					"input":24,
					"interpolation":"LINEAR",
					"output":28
				},
				{
					"input":26,
					"interpolation":"STEP",
					"output":29
				},
				{
					"input":24,
					"interpolation":"LINEAR",
					"output":30
				},
				{
					"input":26,
					"interpolation":"STEP",
					"output":31
				},
				{
					"input":24,
					"interpolation":"LINEAR",
					"output":32
				},
				{
					"input":26,
					"interpolation":"STEP",
					"output":33
				},
				{
					"input":24,
					"interpolation":"LINEAR",
					"output":34
				},
				{
					"input":26,
					"interpolation":"STEP",
					"output":35
				}
			]
		}
	],
	"materials":[
		{
			"doubleSided":true,
			"emissiveFactor":[
				1,
				1,
				1
			],
			"emissiveTexture":{
				"index":0
			},
			"extensions":{
				"KHR_materials_specular":{
					"specularFactor":0.718181848526001
				},
				"KHR_materials_ior":{
					"ior":1
				}
			},
			"name":"Material.001",
			"pbrMetallicRoughness":{
				"baseColorTexture":{
					"index":1
				},
				"roughnessFactor":0.29545456171035767
			}
		},
		{
			"doubleSided":true,
			"extensions":{
				"KHR_materials_specular":{
					"specularColorFactor":[
						0.0062694061988651795,
						0.0,
						1.4409091472625732
					]
				},
				"KHR_materials_anisotropy":{
					"anisotropyStrength":0.3909091055393219,
					"anisotropyRotation":5.383547519871827
				},
				"KHR_materials_ior":{
					"ior":12.59999942779541
				}
			},
			"name":"Material.008",
			"pbrMetallicRoughness":{
				"baseColorFactor":[
					0,
					0.6707298755645752,
					1,
					1
				],
				"roughnessFactor":0
			}
		}
	],
	"meshes":[
		{
			"name":"Object_3",
			"primitives":[
				{
					"attributes":{
						"POSITION":0,
						"NORMAL":1,
						"TEXCOORD_0":2
					},
					"indices":3,
					"material":0
				}
			]
		},
		{
			"name":"Object_1",
			"primitives":[
				{
					"attributes":{
						"POSITION":4,
						"NORMAL":5,
						"TEXCOORD_0":6
					},
					"indices":7,
					"material":1
				}
			]
		},
		{
			"name":"Object_0",
			"primitives":[
				{
					"attributes":{
						"POSITION":8,
						"NORMAL":9,
						"TEXCOORD_0":10
					},
					"indices":11,
					"material":1
				}
			]
		},
		{
			"name":"Object_2",
			"primitives":[
				{
					"attributes":{
						"POSITION":12,
						"NORMAL":13,
						"TEXCOORD_0":14
					},
					"indices":15,
					"material":1
				}
			]
		},
		{
			"name":"Object_4",
			"primitives":[
				{
					"attributes":{
						"POSITION":16,
						"NORMAL":17,
						"TEXCOORD_0":18
					},
					"indices":19,
					"material":1
				}
			]
		},
		{
			"name":"Object_5",
			"primitives":[
				{
					"attributes":{
						"POSITION":20,
						"NORMAL":21,
						"TEXCOORD_0":22
					},
					"indices":23,
					"material":1
				}
			]
		}
	],
	"textures":[
		{
			"sampler":0,
			"source":0
		},
		{
			"sampler":1,
			"source":1
		}
	],
	"images":[
		{
			"mimeType":"image/png",
			"name":"1",
			"uri":"1.png"
		},
		{
			"mimeType":"image/png",
			"name":"2",
			"uri":"2.png"
		}
	],
	"accessors":[
		{
			"bufferView":0,
			"componentType":5126,
			"count":2200,
			"max":[
				1.0000005960464478,
				1,
				1.000001072883606
			],
			"min":[
				-1.000000238418579,
				-1,
				-1
			],
			"type":"VEC3"
		},
		{
			"bufferView":1,
			"componentType":5126,
			"count":2200,
			"type":"VEC3"
		},
		{
			"bufferView":2,
			"componentType":5126,
			"count":2200,
			"type":"VEC2"
		},
		{
			"bufferView":3,
			"componentType":5123,
			"count":11904,
			"type":"SCALAR"
		},
		{
			"bufferView":4,
			"componentType":5126,
			"count":1448,
			"max":[
				1.0989623069763184,
				0.15000000596046448,
				1.098962426185608
			],
			"min":[
				-1.0989623069763184,
				-0.15000000596046448,
				-1.0989621877670288
			],
			"type":"VEC3"
		},
		{
			"bufferView":5,
			"componentType":5126,
			"count":1448,
			"type":"VEC3"
		},
		{
			"bufferView":6,
			"componentType":5126,
			"count":1448,
			"type":"VEC2"
		},
		{
			"bufferView":7,
			"componentType":5123,
			"count":7680,
			"type":"SCALAR"
		},
		{
			"bufferView":8,
			"componentType":5126,
			"count":1382,
			"max":[
				1.1517722606658936,
				0.15000081062316895,
				1.151772379875183
			],
			"min":[
				-1.151772379875183,
				-0.15000081062316895,
				-1.151772379875183
			],
			"type":"VEC3"
		},
		{
			"bufferView":9,
			"componentType":5126,
			"count":1382,
			"type":"VEC3"
		},
		{
			"bufferView":10,
			"componentType":5126,
			"count":1382,
			"type":"VEC2"
		},
		{
			"bufferView":11,
			"componentType":5123,
			"count":7680,
			"type":"SCALAR"
		},
		{
			"bufferView":12,
			"componentType":5126,
			"count":1402,
			"max":[
				1.0913395881652832,
				0.15000000596046448,
				1.0913397073745728
			],
			"min":[
				-1.0913397073745728,
				-0.15000000596046448,
				-1.0913395881652832
			],
			"type":"VEC3"
		},
		{
			"bufferView":13,
			"componentType":5126,
			"count":1402,
			"type":"VEC3"
		},
		{
			"bufferView":14,
			"componentType":5126,
			"count":1402,
			"type":"VEC2"
		},
		{
			"bufferView":15,
			"componentType":5123,
			"count":7680,
			"type":"SCALAR"
		},
		{
			"bufferView":16,
			"componentType":5126,
			"count":1400,
			"max":[
				1.0756783485412598,
				0.15000000596046448,
				1.0756782293319702
			],
			"min":[
				-1.0756784677505493,
				-0.15000000596046448,
				-1.0756784677505493
			],
			"type":"VEC3"
		},
		{
			"bufferView":17,
			"componentType":5126,
			"count":1400,
			"type":"VEC3"
		},
		{
			"bufferView":18,
			"componentType":5126,
			"count":1400,
			"type":"VEC2"
		},
		{
			"bufferView":19,
			"componentType":5123,
			"count":7680,
			"type":"SCALAR"
		},
		{
			"bufferView":20,
			"componentType":5126,
			"count":1457,
			"max":[
				1.0319788455963135,
				0.15000000596046448,
				1.031978726387024
			],
			"min":[
				-1.0319788455963135,
				-0.15000000596046448,
				-1.0319790840148926
			],
			"type":"VEC3"
		},
		{
			"bufferView":21,
			"componentType":5126,
			"count":1457,
			"type":"VEC3"
		},
		{
			"bufferView":22,
			"componentType":5126,
			"count":1457,
			"type":"VEC2"
		},
		{
			"bufferView":23,
			"componentType":5123,
			"count":7680,
			"type":"SCALAR"
		},
		{
			"bufferView":24,
			"componentType":5126,
			"count":270,
			"max":[
				11.208333333333334
			],
			"min":[
				0
			],
			"type":"SCALAR"
		},
		{
			"bufferView":25,
			"componentType":5126,
			"count":270,
			"type":"VEC4"
		},
		{
			"bufferView":26,
			"componentType":5126,
			"count":2,
			"max":[
				11.208333333333334
			],
			"min":[
				0
			],
			"type":"SCALAR"
		},
		{
			"bufferView":27,
			"componentType":5126,
			"count":2,
			"type":"VEC3"
		},
		{
			"bufferView":28,
			"componentType":5126,
			"count":270,
			"type":"VEC4"
		},
		{
			"bufferView":29,
			"componentType":5126,
			"count":2,
			"type":"VEC3"
		},
		{
			"bufferView":30,
			"componentType":5126,
			"count":270,
			"type":"VEC4"
		},
		{
			"bufferView":31,
			"componentType":5126,
			"count":2,
			"type":"VEC3"
		},
		{
			"bufferView":32,
			"componentType":5126,
			"count":270,
			"type":"VEC4"
		},
		{
			"bufferView":33,
			"componentType":5126,
			"count":2,
			"type":"VEC3"
		},
		{
			"bufferView":34,
			"componentType":5126,
			"count":270,
			"type":"VEC4"
		},
		{
			"bufferView":35,
			"componentType":5126,
			"count":2,
			"type":"VEC3"
		}
	],
	"bufferViews":[
		{
			"buffer":0,
			"byteLength":26400,
			"byteOffset":0,
			"target":34962
		},
		{
			"buffer":0,
			"byteLength":26400,
			"byteOffset":26400,
			"target":34962
		},
		{
			"buffer":0,
			"byteLength":17600,
			"byteOffset":52800,
			"target":34962
		},
		{
			"buffer":0,
			"byteLength":23808,
			"byteOffset":70400,
			"target":34963
		},
		{
			"buffer":0,
			"byteLength":17376,
			"byteOffset":94208,
			"target":34962
		},
		{
			"buffer":0,
			"byteLength":17376,
			"byteOffset":111584,
			"target":34962
		},
		{
			"buffer":0,
			"byteLength":11584,
			"byteOffset":128960,
			"target":34962
		},
		{
			"buffer":0,
			"byteLength":15360,
			"byteOffset":140544,
			"target":34963
		},
		{
			"buffer":0,
			"byteLength":16584,
			"byteOffset":155904,
			"target":34962
		},
		{
			"buffer":0,
			"byteLength":16584,
			"byteOffset":172488,
			"target":34962
		},
		{
			"buffer":0,
			"byteLength":11056,
			"byteOffset":189072,
			"target":34962
		},
		{
			"buffer":0,
			"byteLength":15360,
			"byteOffset":200128,
			"target":34963
		},
		{
			"buffer":0,
			"byteLength":16824,
			"byteOffset":215488,
			"target":34962
		},
		{
			"buffer":0,
			"byteLength":16824,
			"byteOffset":232312,
			"target":34962
		},
		{
			"buffer":0,
			"byteLength":11216,
			"byteOffset":249136,
			"target":34962
		},
		{
			"buffer":0,
			"byteLength":15360,
			"byteOffset":260352,
			"target":34963
		},
		{
			"buffer":0,
			"byteLength":16800,
			"byteOffset":275712,
			"target":34962
		},
		{
			"buffer":0,
			"byteLength":16800,
			"byteOffset":292512,
			"target":34962
		},
		{
			"buffer":0,
			"byteLength":11200,
			"byteOffset":309312,
			"target":34962
		},
		{
			"buffer":0,
			"byteLength":15360,
			"byteOffset":320512,
			"target":34963
		},
		{
			"buffer":0,
			"byteLength":17484,
			"byteOffset":335872,
			"target":34962
		},
		{
			"buffer":0,
			"byteLength":17484,
			"byteOffset":353356,
			"target":34962
		},
		{
			"buffer":0,
			"byteLength":11656,
			"byteOffset":370840,
			"target":34962
		},
		{
			"buffer":0,
			"byteLength":15360,
			"byteOffset":382496,
			"target":34963
		},
		{
			"buffer":0,
			"byteLength":1080,
			"byteOffset":397856
		},
		{
			"buffer":0,
			"byteLength":4320,
			"byteOffset":398936
		},
		{
			"buffer":0,
			"byteLength":8,
			"byteOffset":403256
		},
		{
			"buffer":0,
			"byteLength":24,
			"byteOffset":403264
		},
		{
			"buffer":0,
			"byteLength":4320,
			"byteOffset":403288
		},
		{
			"buffer":0,
			"byteLength":24,
			"byteOffset":407608
		},
		{
			"buffer":0,
			"byteLength":4320,
			"byteOffset":407632
		},
		{
			"buffer":0,
			"byteLength":24,
			"byteOffset":411952
		},
		{
			"buffer":0,
			"byteLength":4320,
			"byteOffset":411976
		},
		{
			"buffer":0,
			"byteLength":24,
			"byteOffset":416296
		},
		{
			"buffer":0,
			"byteLength":4320,
			"byteOffset":416320
		},
		{
			"buffer":0,
			"byteLength":24,
			"byteOffset":420640
		}
	],
	"samplers":[
		{
			"magFilter":9729,
			"minFilter":9987,
			"wrapS":33648,
			"wrapT":33648
		},
		{
			"magFilter":9729,
			"minFilter":9987,
			"wrapS":33071,
			"wrapT":33071
		}
	],
	"buffers":[
		{
			"byteLength":420664,
			"uri":"ball.bin"
		}
	]
}
